<svg width="77" height="77" viewBox="0 0 77 77" fill="none" xmlns="http://www.w3.org/2000/svg">
<g clip-path="url(#clip0_8_116)">
<path d="M40.5506 27.6108V50.899H42.1553V54.3529H35.0533V50.899H36.6922V49.1208H18.1177V45.6669H19.7225V34.9974H18.1177V31.5434H36.6922V27.6108H32.3218V29.9362H28.8732V24.1569H48.3013V29.9362H44.8528V27.6108H40.5506ZM23.6832 45.6669H36.6922V34.9974H23.6832V45.6669ZM51.9889 31.5434C53.0474 31.5434 54.0376 31.7486 54.9595 32.159C55.8814 32.5694 56.6667 33.1165 57.3838 33.8005C58.0666 34.4844 58.6129 35.3051 59.0227 36.2285C59.4324 37.1518 59.6373 38.1435 59.6373 39.1694V41.4948C59.6373 42.5549 59.4324 43.5466 59.0227 44.47C58.6129 45.3933 58.0666 46.1798 57.3838 46.898C56.7009 47.5819 55.8814 48.1291 54.9595 48.5394C54.0376 48.9498 53.0474 49.155 51.9889 49.155H41.3359V45.6669H51.7158C52.2279 45.6669 52.7401 45.5643 53.2181 45.3591C53.6962 45.1539 54.1059 44.8803 54.4815 44.5042C54.8229 44.128 55.1302 43.7176 55.3351 43.2389C55.54 42.7601 55.6424 42.2471 55.6424 41.7V38.9984C55.6424 38.4513 55.54 37.9383 55.3351 37.4595C55.1302 36.9808 54.8571 36.5362 54.4815 36.1943C54.1059 35.8181 53.6962 35.5445 53.2181 35.3393C52.7401 35.1341 52.2621 35.0316 51.7158 35.0316H41.3359V31.5434H51.9889Z" fill="url(#paint0_linear_8_116)"/>
</g>
<defs>
<linearGradient id="paint0_linear_8_116" x1="18.1177" y1="39.2549" x2="59.6373" y2="39.2549" gradientUnits="userSpaceOnUse">
<stop stop-color="#FFB80C"/>
<stop offset="0.52" stop-color="#FBBBC3"/>
<stop offset="1" stop-color="#4691F9"/>
</linearGradient>
<clipPath id="clip0_8_116">
<rect width="41.5196" height="30.1961" fill="white" transform="translate(18.1177 24.1569)"/>
</clipPath>
</defs>
</svg>
